<svg width="64" height="64" viewBox="0 0 64 64" fill="none" xmlns="http://www.w3.org/2000/svg">
<path d="M20.3126 0.149998C19.7876 0.450001 19.7626 0.612499 19.7501 2.9125V5.125L13.3626 32.25C9.4126 49.075 7.00009 59.55 7.02509 59.8375C7.05009 60.15 7.16259 60.3625 7.37509 60.525C7.70009 60.7625 18.2876 64 18.7376 64C18.8751 64 19.1251 63.875 19.3001 63.7125C19.5251 63.525 21.7751 58.3875 27.0751 46C31.1876 36.4125 34.5751 28.525 34.6126 28.475C34.6876 28.3875 39.3751 39.175 39.3751 39.4125C39.3751 39.4625 38.2251 39.5 36.8126 39.5C34.2501 39.5 34.2376 39.5 33.9376 39.8125L33.6251 40.1125V45.3V50.4875L33.9126 50.8125C34.1626 51.1 34.6251 51.2125 39.7876 52.25C43.6876 53.025 45.4626 53.3375 45.6626 53.2625C45.8126 53.2 48.3876 50.95 51.3751 48.2625C55.8001 44.2875 56.8376 43.2875 56.9751 42.9125C57.1001 42.5625 57.1251 41.8375 57.1001 40.25L57.0501 38.0625L53.3751 21.9375L49.7001 5.8125L49.6376 3.2125L49.5626 0.599998L49.2126 0.299999L48.8626 0H34.7126C24.3001 0.0125008 20.5001 0.0499992 20.3126 0.149998ZM26.1251 3.1875V4.25H24.0001H21.8751V3.1875V2.125H24.0001H26.1251V3.1875ZM31.5001 3.1875V4.25H29.8751H28.2501V3.1875V2.125H29.8751H31.5001V3.1875ZM35.7501 3.1875V4.25H34.6876H33.6251V3.1875V2.125H34.6876H35.7501V3.1875ZM41.1001 3.2125L41.1376 4.25H39.5001H37.8751V3.1875V2.1125L39.4751 2.15L41.0626 2.1875L41.1001 3.2125ZM47.5001 3.1875V4.25H45.3751H43.2501V3.1875V2.125H45.3751H47.5001V3.1875ZM26.1251 7.775C26.1251 9.4375 25.8751 10.1375 25.0251 10.9C24.3126 11.5375 23.5126 11.75 21.7876 11.75C20.4876 11.75 20.3626 11.725 20.4251 11.525C20.5001 11.3 21.6251 6.5 21.6251 6.425C21.6251 6.4 22.6376 6.375 23.8751 6.375H26.1251V7.775ZM33.6251 15.8375V25.3125L25.8626 43.4375C21.5876 53.4 18.0876 61.575 18.0751 61.5875C18.0376 61.6375 9.6001 59.125 9.4251 59.0125C9.3251 58.9625 10.9626 51.8 14.5751 36.4375C17.4876 24.0625 19.8751 13.925 19.8751 13.9C19.8751 13.8875 20.6251 13.875 21.5501 13.875C24.2251 13.875 25.3126 13.55 26.5751 12.35C27.8001 11.1875 28.2501 9.95 28.2501 7.6875V6.375H30.9376H33.6251V15.8375ZM37.8751 14.6625V22.95L37.2251 23.4375C36.8626 23.7 36.3751 24.05 36.1626 24.225L35.7501 24.525V15.45V6.375H36.8126H37.8751V14.6625ZM41.1376 8.125C41.2251 10.0625 41.3251 10.4625 42.0001 11.4625C42.5626 12.3125 43.2376 12.9 44.1626 13.325C45.1001 13.75 45.9251 13.875 47.7626 13.875C49.3251 13.875 49.3751 13.8875 49.4376 14.15C50.8751 20.25 54.8751 38.425 54.8751 38.875V39.5H48.3251H41.7751L39.0751 33.2C37.5876 29.7375 36.3751 26.85 36.3751 26.7875C36.3876 26.7375 37.1126 26.15 37.9876 25.5C38.8751 24.85 39.6876 24.1625 39.8001 23.975C39.9751 23.6875 40.0001 22.6875 40.0001 15V6.3625L40.5376 6.4L41.0626 6.4375L41.1376 8.125ZM48.2751 9C48.6001 10.4125 48.8626 11.6125 48.8626 11.675C48.8751 11.725 48.1251 11.7625 47.2251 11.725C45.6751 11.6875 45.5126 11.65 44.9001 11.325C43.6251 10.625 43.2501 9.825 43.2501 7.8125V6.375L45.4626 6.4L47.6876 6.4375L48.2751 9ZM54.8751 41.9375C54.8751 42.1875 53.9126 43.1125 49.9501 46.6875L45.0251 51.125L40.6626 50.25C38.2751 49.775 36.1876 49.35 36.0376 49.3125L35.7501 49.25V45.4375V41.625H45.3126H54.8751V41.9375Z" fill="#8F8F8F"/>
</svg>
